<svg width="28" height="28" viewBox="0 0 28 28" fill="none" xmlns="http://www.w3.org/2000/svg">
<path fill-rule="evenodd" clip-rule="evenodd" d="M16.1887 2.15989C14.6873 2.3576 12.8807 3.99094 11.7111 6.37823C10.5415 8.76545 10.358 11.1939 11.1218 12.5015C12.6233 12.3038 14.4298 10.6704 15.5994 8.28317C16.769 5.89594 16.9525 3.46749 16.1887 2.15989Z" fill="#10B981"/>
<path fill-rule="evenodd" clip-rule="evenodd" d="M10.833 11.758C10.224 12.649 8.71284 13.21 6.99293 13.086C5.27362 12.9621 3.8589 12.1908 3.38349 11.2222C3.99245 10.3312 5.50361 9.77022 7.22352 9.89417C8.94282 10.0181 10.3575 10.7894 10.833 11.758Z" fill="#10B981"/>
<path d="M9.12924 8.5887L9.54437 8.34902L11.4618 11.67L10.6315 12.1494L9.12924 8.5887Z" fill="#A16207"/>
<mask id="mask0_2_45" style="mask-type:alpha" maskUnits="userSpaceOnUse" x="9" y="8" width="3" height="5">
<path d="M9.12924 8.5887L9.54437 8.34902L11.4618 11.67L10.6315 12.1494L9.12924 8.5887Z" fill="#A16207"/>
</mask>
<g mask="url(#mask0_2_45)">
<path d="M9.12924 8.5887L9.54437 8.34902L10.0237 9.17928L9.19346 9.65862L9.12924 8.5887Z" fill="#8B580E"/>
</g>
<circle cx="14.8172" cy="17.4819" r="7.66957" transform="rotate(-30 14.8172 17.4819)" fill="url(#paint0_linear_2_45)"/>
<circle cx="17.0041" cy="14.5587" r="3.35544" transform="rotate(-30 17.0041 14.5587)" fill="url(#paint1_linear_2_45)"/>
<defs>
<linearGradient id="paint0_linear_2_45" x1="14.8172" y1="25.1514" x2="14.8172" y2="6.28846" gradientUnits="userSpaceOnUse">
<stop stop-color="#F43F5E"/>
<stop offset="1" stop-color="#FDA4AF"/>
</linearGradient>
<linearGradient id="paint1_linear_2_45" x1="17.0041" y1="17.9142" x2="17.0041" y2="9.66162" gradientUnits="userSpaceOnUse">
<stop stop-color="#FF617C"/>
<stop offset="1" stop-color="#FF96A3"/>
</linearGradient>
</defs>
</svg>
